<?plantuml 1.2026.2?><svg xmlns="http://www.w3.org/2000/svg" xmlns:xlink="http://www.w3.org/1999/xlink" contentStyleType="text/css" data-diagram-type="CLASS" height="887px" preserveAspectRatio="none" style="width:1417px;height:887px;background:#FFFFFF;" version="1.1" viewBox="0 0 1417 887" width="1417px" zoomAndPan="magnify"><title>Animal Hierarchy Example (Over-engineered)</title><defs/><g><g class="title" data-source-line="4"><text fill="#000000" font-family="sans-serif" font-size="14" font-weight="bold" lengthAdjust="spacing" textLength="358.3535" x="522.486" y="22.9951">Animal Hierarchy Example (Over-engineered)</text></g><!--class Animal--><g class="entity" data-qualified-name="Animal" data-source-line="6" id="ent0002"><rect fill="#F1F1F1" height="186.6406" rx="2.5" ry="2.5" style="stroke:#181818;stroke-width:0.5;" width="290.7627" x="731.98" y="44.2969"/><ellipse cx="834.043" cy="64.4297" fill="#A9DCDF" rx="11" ry="11" style="stroke:#181818;stroke-width:1;"/><path d="M834.1524,59.7734 L832.9961,64.8516 L835.3242,64.8516 L834.1524,59.7734 Z M832.668,57.5391 L835.6524,57.5391 L839.0117,69.9297 L836.5586,69.9297 L835.793,66.8672 L832.5117,66.8672 L831.7617,69.9297 L829.3242,69.9297 L832.668,57.5391 Z " fill="#000000"/><text fill="#000000" font-family="sans-serif" font-size="12" font-style="italic" lengthAdjust="spacing" textLength="82.1367" x="852.543" y="60.4355">&#171;animal.php&#187;</text><text fill="#000000" font-family="sans-serif" font-size="14" font-style="italic" lengthAdjust="spacing" textLength="48.4463" x="869.3882" y="76.2607">Animal</text><line style="stroke:#181818;stroke-width:0.5;" x1="732.98" x2="1021.7427" y1="84.5625" y2="84.5625"/><g data-visibility-modifier="PROTECTED_FIELD"><polygon fill="none" points="742.98,93.2109,746.98,97.2109,742.98,101.2109,738.98,97.2109" style="stroke:#B38D22;stroke-width:1;"/></g><text fill="#000000" font-family="sans-serif" font-size="14" lengthAdjust="spacing" textLength="84.3418" x="751.98" y="101.5576">string name</text><g data-visibility-modifier="PROTECTED_FIELD"><polygon fill="none" points="742.98,109.5078,746.98,113.5078,742.98,117.5078,738.98,113.5078" style="stroke:#B38D22;stroke-width:1;"/></g><text fill="#000000" font-family="sans-serif" font-size="14" lengthAdjust="spacing" textLength="63.0479" x="751.98" y="117.8545">float size</text><line style="stroke:#181818;stroke-width:0.5;" x1="732.98" x2="1021.7427" y1="125.1563" y2="125.1563"/><g data-visibility-modifier="PUBLIC_METHOD"><ellipse cx="742.98" cy="138.8047" fill="#84BE84" rx="3" ry="3" style="stroke:#038048;stroke-width:1;"/></g><text fill="#000000" font-family="sans-serif" font-size="14" lengthAdjust="spacing" textLength="264.7627" x="751.98" y="142.1514">__construct(string $name, float $size)</text><g data-visibility-modifier="PUBLIC_METHOD"><ellipse cx="742.98" cy="155.1016" fill="#84BE84" rx="3" ry="3" style="stroke:#038048;stroke-width:1;"/></g><text fill="#000000" font-family="sans-serif" font-size="14" lengthAdjust="spacing" textLength="124.5713" x="751.98" y="158.4482">getName(): string</text><g data-visibility-modifier="PUBLIC_METHOD"><ellipse cx="742.98" cy="171.3984" fill="#84BE84" rx="3" ry="3" style="stroke:#038048;stroke-width:1;"/></g><text fill="#000000" font-family="sans-serif" font-size="14" lengthAdjust="spacing" textLength="205.666" x="751.98" y="174.7451">setName(string $name): void</text><g data-visibility-modifier="PUBLIC_METHOD"><ellipse cx="742.98" cy="187.6953" fill="#84BE84" rx="3" ry="3" style="stroke:#038048;stroke-width:1;"/></g><text fill="#000000" font-family="sans-serif" font-size="14" lengthAdjust="spacing" textLength="103.2705" x="751.98" y="191.042">getSize(): float</text><g data-visibility-modifier="PUBLIC_METHOD"><ellipse cx="742.98" cy="203.9922" fill="#84BE84" rx="3" ry="3" style="stroke:#038048;stroke-width:1;"/></g><text fill="#000000" font-family="sans-serif" font-size="14" lengthAdjust="spacing" textLength="171.8076" x="751.98" y="207.3389">setSize(float $size): void</text><g data-visibility-modifier="PUBLIC_METHOD"><ellipse cx="742.98" cy="220.2891" fill="#84BE84" rx="3" ry="3" style="stroke:#038048;stroke-width:1;"/></g><text fill="#000000" font-family="sans-serif" font-size="14" font-style="italic" lengthAdjust="spacing" textLength="143.3018" x="751.98" y="223.6357">makeSound(): string</text></g><polygon fill="none" points="864.3765,230.9375,868.5534,251.7114,854.687,249.782" style="stroke:#181818;stroke-width:1;"/><line style="stroke:#181818;stroke-width:1;" x1="861.6202" x2="861.36" y1="250.7467" y2="252.6169"/><!--class Fish--><g class="entity" data-qualified-name="Fish" data-source-line="18" id="ent0003"><rect fill="#F1F1F1" height="72.5625" rx="2.5" ry="2.5" style="stroke:#181818;stroke-width:0.5;" width="139.5654" x="807.58" y="334.9469"/><ellipse cx="844.4872" cy="355.0797" fill="#A9DCDF" rx="11" ry="11" style="stroke:#181818;stroke-width:1;"/><path d="M844.5966,350.4234 L843.4403,355.5016 L845.7684,355.5016 L844.5966,350.4234 Z M843.1122,348.1891 L846.0966,348.1891 L849.4559,360.5797 L847.0028,360.5797 L846.2372,357.5172 L842.9559,357.5172 L842.2059,360.5797 L839.7684,360.5797 L843.1122,348.1891 Z " fill="#000000"/><text fill="#000000" font-family="sans-serif" font-size="12" font-style="italic" lengthAdjust="spacing" textLength="62.8828" x="861.3554" y="351.0855">&#171;fish.php&#187;</text><text fill="#000000" font-family="sans-serif" font-size="14" font-style="italic" lengthAdjust="spacing" textLength="28.1094" x="878.7422" y="366.9107">Fish</text><line style="stroke:#181818;stroke-width:0.5;" x1="808.58" x2="946.1454" y1="375.2125" y2="375.2125"/><g data-visibility-modifier="PROTECTED_FIELD"><polygon fill="none" points="818.58,383.8609,822.58,387.8609,818.58,391.8609,814.58,387.8609" style="stroke:#B38D22;stroke-width:1;"/></g><text fill="#000000" font-family="sans-serif" font-size="14" lengthAdjust="spacing" textLength="113.5654" x="827.58" y="392.2076">bool foundInSea</text><line style="stroke:#181818;stroke-width:0.5;" x1="808.58" x2="946.1454" y1="399.5094" y2="399.5094"/></g><polygon fill="none" points="867.9794,407.5094,869.7486,428.625,856.1945,425.1195" style="stroke:#181818;stroke-width:1;"/><line style="stroke:#181818;stroke-width:1;" x1="862.9716" x2="862.36" y1="426.8723" y2="429.2369"/><line style="stroke:#181818;stroke-width:1;" x1="872.5108" x2="869.78" y1="334.9469" y2="314.5269"/><!--class Bird--><g class="entity" data-qualified-name="Bird" data-source-line="22" id="ent0005"><rect fill="#F1F1F1" height="72.5625" rx="2.5" ry="2.5" style="stroke:#181818;stroke-width:0.5;" width="105.7344" x="1002.49" y="334.9469"/><ellipse cx="1023.2345" cy="355.0797" fill="#A9DCDF" rx="11" ry="11" style="stroke:#181818;stroke-width:1;"/><path d="M1023.3439,350.4234 L1022.1877,355.5016 L1024.5158,355.5016 L1023.3439,350.4234 Z M1021.8595,348.1891 L1024.8439,348.1891 L1028.2033,360.5797 L1025.7502,360.5797 L1024.9845,357.5172 L1021.7033,357.5172 L1020.9533,360.5797 L1018.5158,360.5797 L1021.8595,348.1891 Z " fill="#000000"/><text fill="#000000" font-family="sans-serif" font-size="12" font-style="italic" lengthAdjust="spacing" textLength="64.9688" x="1036.5111" y="351.0855">&#171;bird.php&#187;</text><text fill="#000000" font-family="sans-serif" font-size="14" font-style="italic" lengthAdjust="spacing" textLength="28.1367" x="1054.9271" y="366.9107">Bird</text><line style="stroke:#181818;stroke-width:0.5;" x1="1003.49" x2="1107.2244" y1="375.2125" y2="375.2125"/><g data-visibility-modifier="PROTECTED_FIELD"><polygon fill="none" points="1013.49,383.8609,1017.49,387.8609,1013.49,391.8609,1009.49,387.8609" style="stroke:#B38D22;stroke-width:1;"/></g><text fill="#000000" font-family="sans-serif" font-size="14" lengthAdjust="spacing" textLength="79.7344" x="1022.49" y="392.2076">bool canFly</text><line style="stroke:#181818;stroke-width:0.5;" x1="1003.49" x2="1107.2244" y1="399.5094" y2="399.5094"/></g><!--class Reptile--><g class="entity" data-qualified-name="Reptile" data-source-line="26" id="ent0007"><rect fill="#F1F1F1" height="72.5625" rx="2.5" ry="2.5" style="stroke:#181818;stroke-width:0.5;" width="148.3975" x="1163.16" y="334.9469"/><ellipse cx="1196.2685" cy="355.0797" fill="#A9DCDF" rx="11" ry="11" style="stroke:#181818;stroke-width:1;"/><path d="M1196.3779,350.4234 L1195.2217,355.5016 L1197.5498,355.5016 L1196.3779,350.4234 Z M1194.8935,348.1891 L1197.8779,348.1891 L1201.2373,360.5797 L1198.7842,360.5797 L1198.0185,357.5172 L1194.7373,357.5172 L1193.9873,360.5797 L1191.5498,360.5797 L1194.8935,348.1891 Z " fill="#000000"/><text fill="#000000" font-family="sans-serif" font-size="12" font-style="italic" lengthAdjust="spacing" textLength="80.1563" x="1212.2927" y="351.0855">&#171;reptile.php&#187;</text><text fill="#000000" font-family="sans-serif" font-size="14" font-style="italic" lengthAdjust="spacing" textLength="49.1094" x="1227.8161" y="366.9107">Reptile</text><line style="stroke:#181818;stroke-width:0.5;" x1="1164.16" x2="1310.5575" y1="375.2125" y2="375.2125"/><g data-visibility-modifier="PROTECTED_FIELD"><polygon fill="none" points="1174.16,383.8609,1178.16,387.8609,1174.16,391.8609,1170.16,387.8609" style="stroke:#B38D22;stroke-width:1;"/></g><text fill="#000000" font-family="sans-serif" font-size="14" lengthAdjust="spacing" textLength="122.3975" x="1183.16" y="392.2076">bool isVegetarian</text><line style="stroke:#181818;stroke-width:0.5;" x1="1164.16" x2="1310.5575" y1="399.5094" y2="399.5094"/></g><polygon fill="none" points="1244.9965,407.5094,1255.9664,425.6384,1242.2667,428.5224" style="stroke:#181818;stroke-width:1;"/><line style="stroke:#181818;stroke-width:1;" x1="1249.1165" x2="1249.36" y1="427.0804" y2="428.2369"/><line style="stroke:#181818;stroke-width:1;" x1="1172.9799" x2="1142.85" y1="334.9469" y2="317.9669"/><!--class Mammal--><g class="entity" data-qualified-name="Mammal" data-source-line="30" id="ent0009"><rect fill="#F1F1F1" height="72.5625" rx="2.5" ry="2.5" style="stroke:#181818;stroke-width:0.5;" width="148.3975" x="52.16" y="334.9469"/><ellipse cx="78.7796" cy="355.0797" fill="#A9DCDF" rx="11" ry="11" style="stroke:#181818;stroke-width:1;"/><path d="M78.889,350.4234 L77.7327,355.5016 L80.0608,355.5016 L78.889,350.4234 Z M77.4046,348.1891 L80.389,348.1891 L83.7483,360.5797 L81.2952,360.5797 L80.5296,357.5172 L77.2483,357.5172 L76.4983,360.5797 L74.0608,360.5797 L77.4046,348.1891 Z " fill="#000000"/><text fill="#000000" font-family="sans-serif" font-size="12" font-style="italic" lengthAdjust="spacing" textLength="94.5762" x="93.3617" y="351.0855">&#171;mammal.php&#187;</text><text fill="#000000" font-family="sans-serif" font-size="14" font-style="italic" lengthAdjust="spacing" textLength="60.4023" x="110.4486" y="366.9107">Mammal</text><line style="stroke:#181818;stroke-width:0.5;" x1="53.16" x2="199.5575" y1="375.2125" y2="375.2125"/><g data-visibility-modifier="PROTECTED_FIELD"><polygon fill="none" points="63.16,383.8609,67.16,387.8609,63.16,391.8609,59.16,387.8609" style="stroke:#B38D22;stroke-width:1;"/></g><text fill="#000000" font-family="sans-serif" font-size="14" lengthAdjust="spacing" textLength="122.3975" x="72.16" y="392.2076">bool isVegetarian</text><line style="stroke:#181818;stroke-width:0.5;" x1="53.16" x2="199.5575" y1="399.5094" y2="399.5094"/></g><polygon fill="none" points="156.3809,407.5094,174.5243,418.4554,163.7382,427.3807" style="stroke:#181818;stroke-width:1;"/><line style="stroke:#181818;stroke-width:1;" x1="169.1313" x2="174.36" y1="422.918" y2="429.2369"/><line style="stroke:#181818;stroke-width:1;" x1="189.5845" x2="220.9" y1="334.9469" y2="316.9769"/><!--class Amphibian--><g class="entity" data-qualified-name="Amphibian" data-source-line="34" id="ent0011"><rect fill="#F1F1F1" height="72.5625" rx="2.5" ry="2.5" style="stroke:#181818;stroke-width:0.5;" width="132.9766" x="255.87" y="334.9469"/><ellipse cx="270.87" cy="355.0797" fill="#A9DCDF" rx="11" ry="11" style="stroke:#181818;stroke-width:1;"/><path d="M270.9794,350.4234 L269.8231,355.5016 L272.1513,355.5016 L270.9794,350.4234 Z M269.495,348.1891 L272.4794,348.1891 L275.8388,360.5797 L273.3856,360.5797 L272.62,357.5172 L269.3388,357.5172 L268.5888,360.5797 L266.1513,360.5797 L269.495,348.1891 Z " fill="#000000"/><text fill="#000000" font-family="sans-serif" font-size="12" font-style="italic" lengthAdjust="spacing" textLength="104.9766" x="282.87" y="351.0855">&#171;amphibian.php&#187;</text><text fill="#000000" font-family="sans-serif" font-size="14" font-style="italic" lengthAdjust="spacing" textLength="75.0928" x="297.8119" y="366.9107">Amphibian</text><line style="stroke:#181818;stroke-width:0.5;" x1="256.87" x2="387.8466" y1="375.2125" y2="375.2125"/><g data-visibility-modifier="PROTECTED_FIELD"><polygon fill="none" points="266.87,383.8609,270.87,387.8609,266.87,391.8609,262.87,387.8609" style="stroke:#B38D22;stroke-width:1;"/></g><text fill="#000000" font-family="sans-serif" font-size="14" lengthAdjust="spacing" textLength="106.5039" x="275.87" y="392.2076">bool canFreeze</text><line style="stroke:#181818;stroke-width:0.5;" x1="256.87" x2="387.8466" y1="399.5094" y2="399.5094"/></g><!--class Lizard--><g class="entity" data-qualified-name="Lizard" data-source-line="38" id="ent0013"><rect fill="#F1F1F1" height="56.2656" rx="2.5" ry="2.5" style="stroke:#181818;stroke-width:0.5;" width="102.3379" x="1303.19" y="536.2869"/><ellipse cx="1318.19" cy="556.4197" fill="#A9DCDF" rx="11" ry="11" style="stroke:#181818;stroke-width:1;"/><path d="M1318.2994,551.7634 L1317.1431,556.8416 L1319.4713,556.8416 L1318.2994,551.7634 Z M1316.815,549.5291 L1319.7994,549.5291 L1323.1588,561.9197 L1320.7056,561.9197 L1319.94,558.8572 L1316.6588,558.8572 L1315.9088,561.9197 L1313.4713,561.9197 L1316.815,549.5291 Z " fill="#000000"/><text fill="#000000" font-family="sans-serif" font-size="12" font-style="italic" lengthAdjust="spacing" textLength="74.3379" x="1330.19" y="552.4255">&#171;lizard.php&#187;</text><text fill="#000000" font-family="sans-serif" font-size="14" font-style="italic" lengthAdjust="spacing" textLength="42.2598" x="1346.2291" y="568.2507">Lizard</text><line style="stroke:#181818;stroke-width:0.5;" x1="1304.19" x2="1404.5279" y1="576.5525" y2="576.5525"/><line style="stroke:#181818;stroke-width:0.5;" x1="1304.19" x2="1404.5279" y1="584.5525" y2="584.5525"/></g><!--class Pet--><g class="entity" data-qualified-name="Pet" data-source-line="40" id="ent0015"><rect fill="#F1F1F1" height="80.5938" rx="2.5" ry="2.5" style="stroke:#181818;stroke-width:0.5;" width="288.8008" x="443.96" y="330.9369"/><ellipse cx="572.8379" cy="346.9369" fill="#B4A7E5" rx="11" ry="11" style="stroke:#181818;stroke-width:1;"/><path d="M568.7598,342.7025 L568.7598,340.5463 L576.1504,340.5463 L576.1504,342.7025 L573.6817,342.7025 L573.6817,350.7806 L576.1504,350.7806 L576.1504,352.9369 L568.7598,352.9369 L568.7598,350.7806 L571.2286,350.7806 L571.2286,342.7025 L568.7598,342.7025 Z " fill="#000000"/><text fill="#000000" font-family="sans-serif" font-size="14" font-style="italic" lengthAdjust="spacing" textLength="22.5449" x="593.3379" y="351.7836">Pet</text><line style="stroke:#181818;stroke-width:0.5;" x1="444.96" x2="731.7608" y1="362.9369" y2="362.9369"/><line style="stroke:#181818;stroke-width:0.5;" x1="444.96" x2="731.7608" y1="370.9369" y2="370.9369"/><g data-visibility-modifier="PUBLIC_METHOD"><ellipse cx="454.96" cy="384.5853" fill="#84BE84" rx="3" ry="3" style="stroke:#038048;stroke-width:1;"/></g><text fill="#000000" font-family="sans-serif" font-size="14" lengthAdjust="spacing" textLength="153.1387" x="463.96" y="387.932">getNickname(): string</text><g data-visibility-modifier="PUBLIC_METHOD"><ellipse cx="454.96" cy="400.8822" fill="#84BE84" rx="3" ry="3" style="stroke:#038048;stroke-width:1;"/></g><text fill="#000000" font-family="sans-serif" font-size="14" lengthAdjust="spacing" textLength="262.8008" x="463.96" y="404.2289">setNickname(string $nickname): void</text></g><polygon fill="none" points="568.8626,411.5306,566.4528,432.5828,553.8505,426.4851" style="stroke:#181818;stroke-width:1;"/><line style="stroke:#181818;stroke-width:1;" x1="560.1517" x2="558.36" y1="429.5339" y2="433.2369"/><!--class Dog--><g class="entity" data-qualified-name="Dog" data-source-line="45" id="ent0016"><rect fill="#F1F1F1" height="72.5625" rx="2.5" ry="2.5" style="stroke:#181818;stroke-width:0.5;" width="138.9092" x="502.91" y="528.1369"/><ellipse cx="538.9998" cy="548.2697" fill="#ADD1B2" rx="11" ry="11" style="stroke:#181818;stroke-width:1;"/><path d="M541.9685,553.9103 Q541.3904,554.2072 540.7498,554.3478 Q540.1092,554.5041 539.406,554.5041 Q536.906,554.5041 535.5779,552.8634 Q534.2654,551.2072 534.2654,548.0822 Q534.2654,544.9572 535.5779,543.3009 Q536.906,541.6447 539.406,541.6447 Q540.1092,541.6447 540.7498,541.8009 Q541.406,541.9572 541.9685,542.2541 L541.9685,544.9728 Q541.3435,544.3947 540.7498,544.1291 Q540.156,543.8478 539.531,543.8478 Q538.1873,543.8478 537.4998,544.9259 Q536.8123,545.9884 536.8123,548.0822 Q536.8123,550.1759 537.4998,551.2541 Q538.1873,552.3166 539.531,552.3166 Q540.156,552.3166 540.7498,552.0509 Q541.3435,551.7697 541.9685,551.1916 L541.9685,553.9103 Z " fill="#000000"/><text fill="#000000" font-family="sans-serif" font-size="12" font-style="italic" lengthAdjust="spacing" textLength="64.043" x="555.6864" y="544.2755">&#171;dog.php&#187;</text><text fill="#000000" font-family="sans-serif" font-size="14" lengthAdjust="spacing" textLength="28.2324" x="573.5917" y="560.1007">Dog</text><line style="stroke:#181818;stroke-width:0.5;" x1="503.91" x2="640.8192" y1="568.4025" y2="568.4025"/><g data-visibility-modifier="PRIVATE_FIELD"><rect fill="none" height="6" style="stroke:#C82930;stroke-width:1;" width="6" x="510.91" y="579.0509"/></g><text fill="#000000" font-family="sans-serif" font-size="14" lengthAdjust="spacing" textLength="112.9092" x="522.91" y="585.3976">string nickname</text><line style="stroke:#181818;stroke-width:0.5;" x1="503.91" x2="640.8192" y1="592.6994" y2="592.6994"/></g><!--class Cat--><g class="entity" data-qualified-name="Cat" data-source-line="49" id="ent0019"><rect fill="#F1F1F1" height="72.5625" rx="2.5" ry="2.5" style="stroke:#181818;stroke-width:0.5;" width="138.9092" x="307.91" y="528.1369"/><ellipse cx="345.7638" cy="548.2697" fill="#ADD1B2" rx="11" ry="11" style="stroke:#181818;stroke-width:1;"/><path d="M348.7325,553.9103 Q348.1544,554.2072 347.5138,554.3478 Q346.8731,554.5041 346.17,554.5041 Q343.67,554.5041 342.3419,552.8634 Q341.0294,551.2072 341.0294,548.0822 Q341.0294,544.9572 342.3419,543.3009 Q343.67,541.6447 346.17,541.6447 Q346.8731,541.6447 347.5138,541.8009 Q348.17,541.9572 348.7325,542.2541 L348.7325,544.9728 Q348.1075,544.3947 347.5138,544.1291 Q346.92,543.8478 346.295,543.8478 Q344.9513,543.8478 344.2638,544.9259 Q343.5763,545.9884 343.5763,548.0822 Q343.5763,550.1759 344.2638,551.2541 Q344.9513,552.3166 346.295,552.3166 Q346.92,552.3166 347.5138,552.0509 Q348.1075,551.7697 348.7325,551.1916 L348.7325,553.9103 Z " fill="#000000"/><text fill="#000000" font-family="sans-serif" font-size="12" font-style="italic" lengthAdjust="spacing" textLength="60.123" x="362.8424" y="544.2755">&#171;cat.php&#187;</text><text fill="#000000" font-family="sans-serif" font-size="14" lengthAdjust="spacing" textLength="23.8438" x="380.982" y="560.1007">Cat</text><line style="stroke:#181818;stroke-width:0.5;" x1="308.91" x2="445.8192" y1="568.4025" y2="568.4025"/><g data-visibility-modifier="PRIVATE_FIELD"><rect fill="none" height="6" style="stroke:#C82930;stroke-width:1;" width="6" x="315.91" y="579.0509"/></g><text fill="#000000" font-family="sans-serif" font-size="14" lengthAdjust="spacing" textLength="112.9092" x="327.91" y="585.3976">string nickname</text><line style="stroke:#181818;stroke-width:0.5;" x1="308.91" x2="445.8192" y1="592.6994" y2="592.6994"/></g><!--class Livestock--><g class="entity" data-qualified-name="Livestock" data-source-line="53" id="ent0022"><rect fill="#F1F1F1" height="145.7813" rx="2.5" ry="2.5" style="stroke:#181818;stroke-width:0.5;" width="238.7207" x="7" y="491.5269"/><ellipse cx="89.2397" cy="507.5269" fill="#A9DCDF" rx="11" ry="11" style="stroke:#181818;stroke-width:1;"/><path d="M89.3491,502.8706 L88.1929,507.9488 L90.521,507.9488 L89.3491,502.8706 Z M87.8647,500.6363 L90.8491,500.6363 L94.2085,513.0269 L91.7554,513.0269 L90.9897,509.9644 L87.7085,509.9644 L86.9585,513.0269 L84.521,513.0269 L87.8647,500.6363 Z " fill="#000000"/><text fill="#000000" font-family="sans-serif" font-size="14" font-style="italic" lengthAdjust="spacing" textLength="65.7412" x="109.7397" y="512.3736">Livestock</text><line style="stroke:#181818;stroke-width:0.5;" x1="8" x2="244.7207" y1="523.5269" y2="523.5269"/><g data-visibility-modifier="PRIVATE_FIELD"><rect fill="none" height="6" style="stroke:#C82930;stroke-width:1;" width="6" x="15" y="534.1753"/></g><text fill="#000000" font-family="sans-serif" font-size="14" lengthAdjust="spacing" textLength="70.7451" x="27" y="540.522">float price</text><g data-visibility-modifier="PRIVATE_FIELD"><rect fill="none" height="6" style="stroke:#C82930;stroke-width:1;" width="6" x="15" y="550.4722"/></g><text fill="#000000" font-family="sans-serif" font-size="14" lengthAdjust="spacing" textLength="83.1045" x="27" y="556.8189">float weight</text><line style="stroke:#181818;stroke-width:0.5;" x1="8" x2="244.7207" y1="564.1206" y2="564.1206"/><g data-visibility-modifier="PUBLIC_METHOD"><ellipse cx="18" cy="577.7691" fill="#84BE84" rx="3" ry="3" style="stroke:#038048;stroke-width:1;"/></g><text fill="#000000" font-family="sans-serif" font-size="14" lengthAdjust="spacing" textLength="108.9307" x="27" y="581.1157">getPrice(): float</text><g data-visibility-modifier="PUBLIC_METHOD"><ellipse cx="18" cy="594.0659" fill="#84BE84" rx="3" ry="3" style="stroke:#038048;stroke-width:1;"/></g><text fill="#000000" font-family="sans-serif" font-size="14" lengthAdjust="spacing" textLength="185.165" x="27" y="597.4126">setPrice(float $price): void</text><g data-visibility-modifier="PUBLIC_METHOD"><ellipse cx="18" cy="610.3628" fill="#84BE84" rx="3" ry="3" style="stroke:#038048;stroke-width:1;"/></g><text fill="#000000" font-family="sans-serif" font-size="14" lengthAdjust="spacing" textLength="124.127" x="27" y="613.7095">getWeight(): float</text><g data-visibility-modifier="PUBLIC_METHOD"><ellipse cx="18" cy="626.6597" fill="#84BE84" rx="3" ry="3" style="stroke:#038048;stroke-width:1;"/></g><text fill="#000000" font-family="sans-serif" font-size="14" lengthAdjust="spacing" textLength="212.7207" x="27" y="630.0064">setWeight(float $weight): void</text></g><!--class Cow--><g class="entity" data-qualified-name="Cow" data-source-line="63" id="ent0024"><rect fill="#F1F1F1" height="56.2656" rx="2.5" ry="2.5" style="stroke:#181818;stroke-width:0.5;" width="93.2207" x="79.75" y="697.3069"/><ellipse cx="94.75" cy="717.4397" fill="#ADD1B2" rx="11" ry="11" style="stroke:#181818;stroke-width:1;"/><path d="M97.7188,723.0803 Q97.1406,723.3772 96.5,723.5178 Q95.8594,723.6741 95.1563,723.6741 Q92.6563,723.6741 91.3281,722.0334 Q90.0156,720.3772 90.0156,717.2522 Q90.0156,714.1272 91.3281,712.4709 Q92.6563,710.8147 95.1563,710.8147 Q95.8594,710.8147 96.5,710.9709 Q97.1563,711.1272 97.7188,711.4241 L97.7188,714.1428 Q97.0938,713.5647 96.5,713.2991 Q95.9063,713.0178 95.2813,713.0178 Q93.9375,713.0178 93.25,714.0959 Q92.5625,715.1584 92.5625,717.2522 Q92.5625,719.3459 93.25,720.4241 Q93.9375,721.4866 95.2813,721.4866 Q95.9063,721.4866 96.5,721.2209 Q97.0938,720.9397 97.7188,720.3616 L97.7188,723.0803 Z " fill="#000000"/><text fill="#000000" font-family="sans-serif" font-size="12" font-style="italic" lengthAdjust="spacing" textLength="65.2207" x="106.75" y="713.4455">&#171;cow.php&#187;</text><text fill="#000000" font-family="sans-serif" font-size="14" lengthAdjust="spacing" textLength="29.791" x="124.4648" y="729.2707">Cow</text><line style="stroke:#181818;stroke-width:0.5;" x1="80.75" x2="171.9707" y1="737.5725" y2="737.5725"/><line style="stroke:#181818;stroke-width:0.5;" x1="80.75" x2="171.9707" y1="745.5725" y2="745.5725"/></g><!--class Octopus--><g class="entity" data-qualified-name="Octopus" data-source-line="65" id="ent0026"><rect fill="#F1F1F1" height="56.2656" rx="2.5" ry="2.5" style="stroke:#181818;stroke-width:0.5;" width="116.9277" x="834.9" y="536.2869"/><ellipse cx="849.9" cy="556.4197" fill="#ADD1B2" rx="11" ry="11" style="stroke:#181818;stroke-width:1;"/><path d="M852.8688,562.0603 Q852.2906,562.3572 851.65,562.4978 Q851.0094,562.6541 850.3063,562.6541 Q847.8063,562.6541 846.4781,561.0134 Q845.1656,559.3572 845.1656,556.2322 Q845.1656,553.1072 846.4781,551.4509 Q847.8063,549.7947 850.3063,549.7947 Q851.0094,549.7947 851.65,549.9509 Q852.3063,550.1072 852.8688,550.4041 L852.8688,553.1228 Q852.2438,552.5447 851.65,552.2791 Q851.0563,551.9978 850.4313,551.9978 Q849.0875,551.9978 848.4,553.0759 Q847.7125,554.1384 847.7125,556.2322 Q847.7125,558.3259 848.4,559.4041 Q849.0875,560.4666 850.4313,560.4666 Q851.0563,560.4666 851.65,560.2009 Q852.2438,559.9197 852.8688,559.3416 L852.8688,562.0603 Z " fill="#000000"/><text fill="#000000" font-family="sans-serif" font-size="12" font-style="italic" lengthAdjust="spacing" textLength="88.9277" x="861.9" y="552.4255">&#171;octopus.php&#187;</text><text fill="#000000" font-family="sans-serif" font-size="14" lengthAdjust="spacing" textLength="57.8252" x="877.4513" y="568.2507">Octopus</text><line style="stroke:#181818;stroke-width:0.5;" x1="835.9" x2="950.8277" y1="576.5525" y2="576.5525"/><line style="stroke:#181818;stroke-width:0.5;" x1="835.9" x2="950.8277" y1="584.5525" y2="584.5525"/></g><!--class Salmon--><g class="entity" data-qualified-name="Salmon" data-source-line="67" id="ent0028"><rect fill="#F1F1F1" height="56.2656" rx="2.5" ry="2.5" style="stroke:#181818;stroke-width:0.5;" width="113.043" x="686.84" y="536.2869"/><ellipse cx="701.84" cy="556.4197" fill="#ADD1B2" rx="11" ry="11" style="stroke:#181818;stroke-width:1;"/><path d="M704.8088,562.0603 Q704.2306,562.3572 703.59,562.4978 Q702.9494,562.6541 702.2463,562.6541 Q699.7463,562.6541 698.4181,561.0134 Q697.1056,559.3572 697.1056,556.2322 Q697.1056,553.1072 698.4181,551.4509 Q699.7463,549.7947 702.2463,549.7947 Q702.9494,549.7947 703.59,549.9509 Q704.2463,550.1072 704.8088,550.4041 L704.8088,553.1228 Q704.1838,552.5447 703.59,552.2791 Q702.9963,551.9978 702.3713,551.9978 Q701.0275,551.9978 700.34,553.0759 Q699.6525,554.1384 699.6525,556.2322 Q699.6525,558.3259 700.34,559.4041 Q701.0275,560.4666 702.3713,560.4666 Q702.9963,560.4666 703.59,560.2009 Q704.1838,559.9197 704.8088,559.3416 L704.8088,562.0603 Z " fill="#000000"/><text fill="#000000" font-family="sans-serif" font-size="12" font-style="italic" lengthAdjust="spacing" textLength="85.043" x="713.84" y="552.4255">&#171;salmon.php&#187;</text><text fill="#000000" font-family="sans-serif" font-size="14" lengthAdjust="spacing" textLength="52.4316" x="730.1457" y="568.2507">Salmon</text><line style="stroke:#181818;stroke-width:0.5;" x1="687.84" x2="798.883" y1="576.5525" y2="576.5525"/><line style="stroke:#181818;stroke-width:0.5;" x1="687.84" x2="798.883" y1="584.5525" y2="584.5525"/></g><!--class Crow--><g class="entity" data-qualified-name="Crow" data-source-line="69" id="ent0030"><rect fill="#F1F1F1" height="56.2656" rx="2.5" ry="2.5" style="stroke:#181818;stroke-width:0.5;" width="92.9688" x="1008.88" y="536.2869"/><ellipse cx="1023.88" cy="556.4197" fill="#ADD1B2" rx="11" ry="11" style="stroke:#181818;stroke-width:1;"/><path d="M1026.8488,562.0603 Q1026.2706,562.3572 1025.63,562.4978 Q1024.9894,562.6541 1024.2863,562.6541 Q1021.7863,562.6541 1020.4581,561.0134 Q1019.1456,559.3572 1019.1456,556.2322 Q1019.1456,553.1072 1020.4581,551.4509 Q1021.7863,549.7947 1024.2863,549.7947 Q1024.9894,549.7947 1025.63,549.9509 Q1026.2863,550.1072 1026.8488,550.4041 L1026.8488,553.1228 Q1026.2238,552.5447 1025.63,552.2791 Q1025.0363,551.9978 1024.4113,551.9978 Q1023.0675,551.9978 1022.38,553.0759 Q1021.6925,554.1384 1021.6925,556.2322 Q1021.6925,558.3259 1022.38,559.4041 Q1023.0675,560.4666 1024.4113,560.4666 Q1025.0363,560.4666 1025.63,560.2009 Q1026.2238,559.9197 1026.8488,559.3416 L1026.8488,562.0603 Z " fill="#000000"/><text fill="#000000" font-family="sans-serif" font-size="12" font-style="italic" lengthAdjust="spacing" textLength="64.9688" x="1035.88" y="552.4255">&#171;bird.php&#187;</text><text fill="#000000" font-family="sans-serif" font-size="14" lengthAdjust="spacing" textLength="35.5469" x="1050.5909" y="568.2507">Crow</text><line style="stroke:#181818;stroke-width:0.5;" x1="1009.88" x2="1100.8488" y1="576.5525" y2="576.5525"/><line style="stroke:#181818;stroke-width:0.5;" x1="1009.88" x2="1100.8488" y1="584.5525" y2="584.5525"/></g><!--class Turtle--><g class="entity" data-qualified-name="Turtle" data-source-line="71" id="ent0032"><rect fill="#F1F1F1" height="56.2656" rx="2.5" ry="2.5" style="stroke:#181818;stroke-width:0.5;" width="108.1563" x="1160.28" y="536.2869"/><ellipse cx="1175.28" cy="556.4197" fill="#ADD1B2" rx="11" ry="11" style="stroke:#181818;stroke-width:1;"/><path d="M1178.2488,562.0603 Q1177.6706,562.3572 1177.03,562.4978 Q1176.3894,562.6541 1175.6863,562.6541 Q1173.1863,562.6541 1171.8581,561.0134 Q1170.5456,559.3572 1170.5456,556.2322 Q1170.5456,553.1072 1171.8581,551.4509 Q1173.1863,549.7947 1175.6863,549.7947 Q1176.3894,549.7947 1177.03,549.9509 Q1177.6863,550.1072 1178.2488,550.4041 L1178.2488,553.1228 Q1177.6238,552.5447 1177.03,552.2791 Q1176.4363,551.9978 1175.8113,551.9978 Q1174.4675,551.9978 1173.78,553.0759 Q1173.0925,554.1384 1173.0925,556.2322 Q1173.0925,558.3259 1173.78,559.4041 Q1174.4675,560.4666 1175.8113,560.4666 Q1176.4363,560.4666 1177.03,560.2009 Q1177.6238,559.9197 1178.2488,559.3416 L1178.2488,562.0603 Z " fill="#000000"/><text fill="#000000" font-family="sans-serif" font-size="12" font-style="italic" lengthAdjust="spacing" textLength="80.1563" x="1187.28" y="552.4255">&#171;reptile.php&#187;</text><text fill="#000000" font-family="sans-serif" font-size="14" lengthAdjust="spacing" textLength="41.1729" x="1206.7717" y="568.2507">Turtle</text><line style="stroke:#181818;stroke-width:0.5;" x1="1161.28" x2="1267.4363" y1="576.5525" y2="576.5525"/><line style="stroke:#181818;stroke-width:0.5;" x1="1161.28" x2="1267.4363" y1="584.5525" y2="584.5525"/></g><!--class Dragon--><g class="entity" data-qualified-name="Dragon" data-source-line="73" id="ent0034"><rect fill="#F1F1F1" height="56.2656" rx="2.5" ry="2.5" style="stroke:#181818;stroke-width:0.5;" width="111.9355" x="1298.39" y="697.3069"/><ellipse cx="1313.39" cy="717.4397" fill="#ADD1B2" rx="11" ry="11" style="stroke:#181818;stroke-width:1;"/><path d="M1316.3588,723.0803 Q1315.7806,723.3772 1315.14,723.5178 Q1314.4994,723.6741 1313.7963,723.6741 Q1311.2963,723.6741 1309.9681,722.0334 Q1308.6556,720.3772 1308.6556,717.2522 Q1308.6556,714.1272 1309.9681,712.4709 Q1311.2963,710.8147 1313.7963,710.8147 Q1314.4994,710.8147 1315.14,710.9709 Q1315.7963,711.1272 1316.3588,711.4241 L1316.3588,714.1428 Q1315.7338,713.5647 1315.14,713.2991 Q1314.5463,713.0178 1313.9213,713.0178 Q1312.5775,713.0178 1311.89,714.0959 Q1311.2025,715.1584 1311.2025,717.2522 Q1311.2025,719.3459 1311.89,720.4241 Q1312.5775,721.4866 1313.9213,721.4866 Q1314.5463,721.4866 1315.14,721.2209 Q1315.7338,720.9397 1316.3588,720.3616 L1316.3588,723.0803 Z " fill="#000000"/><text fill="#000000" font-family="sans-serif" font-size="12" font-style="italic" lengthAdjust="spacing" textLength="83.9355" x="1325.39" y="713.4455">&#171;dragon.php&#187;</text><text fill="#000000" font-family="sans-serif" font-size="14" lengthAdjust="spacing" textLength="51.4404" x="1341.6376" y="729.2707">Dragon</text><line style="stroke:#181818;stroke-width:0.5;" x1="1299.39" x2="1409.3255" y1="737.5725" y2="737.5725"/><line style="stroke:#181818;stroke-width:0.5;" x1="1299.39" x2="1409.3255" y1="745.5725" y2="745.5725"/></g><!--reverse link Animal to Fish--><g class="link" data-entity-1="ent0002" data-entity-2="ent0003" data-link-type="association" data-source-line="19" id="lnk4"><path d="M861.36,252.6169 C861.36,252.6169 865.65,284.1269 869.78,314.5269" fill="none" id="Animal-backto-Fish" style="stroke:#181818;stroke-width:1;"/></g><!--reverse link Animal to Bird--><g class="link" data-entity-1="ent0002" data-entity-2="ent0005" data-link-type="association" data-source-line="23" id="lnk6"><path d="M861.36,252.6169 C861.36,252.6169 933.4,278.3269 984.36,310.9369 C995.18,317.8569 1006.17,326.2469 1016.17,334.5069" fill="none" id="Animal-backto-Bird" style="stroke:#181818;stroke-width:1;"/></g><!--reverse link Animal to Reptile--><g class="link" data-entity-1="ent0002" data-entity-2="ent0007" data-link-type="association" data-source-line="27" id="lnk8"><path d="M861.36,252.6169 C861.36,252.6169 1012.57,269.4869 1125.36,310.9369 C1131.14,313.0569 1137,315.4269 1142.85,317.9669" fill="none" id="Animal-backto-Reptile" style="stroke:#181818;stroke-width:1;"/></g><!--reverse link Animal to Mammal--><g class="link" data-entity-1="ent0002" data-entity-2="ent0009" data-link-type="association" data-source-line="31" id="lnk10"><path d="M861.36,252.6169 C861.36,252.6169 371.6,271.1569 238.36,310.9369 C232.56,312.6669 226.72,314.7069 220.9,316.9769" fill="none" id="Animal-backto-Mammal" style="stroke:#181818;stroke-width:1;"/></g><!--reverse link Animal to Amphibian--><g class="link" data-entity-1="ent0002" data-entity-2="ent0011" data-link-type="association" data-source-line="35" id="lnk12"><path d="M861.36,252.6169 C861.36,252.6169 596.36,237.0069 406.36,310.9369 C391.72,316.6369 377.22,325.4169 364.49,334.4969" fill="none" id="Animal-backto-Amphibian" style="stroke:#181818;stroke-width:1;"/></g><!--reverse link Reptile to Lizard--><g class="link" data-entity-1="ent0007" data-entity-2="ent0013" data-link-type="association" data-source-line="38" id="lnk14"><path d="M1249.36,428.2369 C1249.36,428.2369 1302.43,496.5569 1333.11,536.0669" fill="none" id="Reptile-backto-Lizard" style="stroke:#181818;stroke-width:1;"/></g><!--reverse link Mammal to Dog--><g class="link" data-entity-1="ent0009" data-entity-2="ent0016" data-link-type="association" data-source-line="46" id="lnk17"><path d="M174.36,429.2369 C174.36,429.2369 342.91,440.2569 464.36,491.5269 C486.25,500.7669 508.44,514.6069 526.97,527.6769" fill="none" id="Mammal-backto-Dog" style="stroke:#181818;stroke-width:1;"/></g><!--reverse link Pet to Dog--><g class="link" data-entity-1="ent0015" data-entity-2="ent0016" data-link-type="association" data-source-line="46" id="lnk18"><path d="M558.36,433.2369 C558.36,433.2369 564.39,489.2969 568.53,527.8469" fill="none" id="Pet-backto-Dog" style="stroke:#181818;stroke-width:1;"/></g><!--reverse link Mammal to Cat--><g class="link" data-entity-1="ent0009" data-entity-2="ent0019" data-link-type="association" data-source-line="50" id="lnk20"><path d="M174.36,429.2369 C174.36,429.2369 263.35,488.0569 323.49,527.8169" fill="none" id="Mammal-backto-Cat" style="stroke:#181818;stroke-width:1;"/></g><!--reverse link Pet to Cat--><g class="link" data-entity-1="ent0015" data-entity-2="ent0019" data-link-type="association" data-source-line="50" id="lnk21"><path d="M558.36,433.2369 C558.36,433.2369 480.41,489.2969 426.82,527.8469" fill="none" id="Pet-backto-Cat" style="stroke:#181818;stroke-width:1;"/></g><!--reverse link Mammal to Livestock--><g class="link" data-entity-1="ent0009" data-entity-2="ent0022" data-link-type="association" data-source-line="54" id="lnk23"><path d="M174.36,429.2369 C174.36,429.2369 163.55,459.4569 152.19,491.2169" fill="none" id="Mammal-backto-Livestock" style="stroke:#181818;stroke-width:1;"/></g><!--reverse link Livestock to Cow--><g class="link" data-entity-1="ent0022" data-entity-2="ent0024" data-link-type="extension" data-source-line="63" id="lnk25"><path d="M126.36,655.4869 C126.36,676.6869 126.36,680.6069 126.36,697.1269" fill="none" id="Livestock-backto-Cow" style="stroke:#181818;stroke-width:1;"/><polygon fill="none" points="126.36,637.4869,120.36,655.4869,132.36,655.4869,126.36,637.4869" style="stroke:#181818;stroke-width:1;"/></g><!--reverse link Fish to Octopus--><g class="link" data-entity-1="ent0003" data-entity-2="ent0026" data-link-type="association" data-source-line="65" id="lnk27"><path d="M862.36,429.2369 C862.36,429.2369 877.94,496.6869 887.01,535.9469" fill="none" id="Fish-backto-Octopus" style="stroke:#181818;stroke-width:1;"/></g><!--reverse link Fish to Salmon--><g class="link" data-entity-1="ent0003" data-entity-2="ent0028" data-link-type="association" data-source-line="67" id="lnk29"><path d="M862.36,429.2369 C862.36,429.2369 802.54,496.6869 767.73,535.9469" fill="none" id="Fish-backto-Salmon" style="stroke:#181818;stroke-width:1;"/></g><!--reverse link Bird to Crow--><g class="link" data-entity-1="ent0005" data-entity-2="ent0030" data-link-type="extension" data-source-line="69" id="lnk31"><path d="M1055.36,425.7469 C1055.36,462.7869 1055.36,502.0669 1055.36,535.8369" fill="none" id="Bird-backto-Crow" style="stroke:#181818;stroke-width:1;"/><polygon fill="none" points="1055.36,407.7469,1049.36,425.7469,1061.36,425.7469,1055.36,407.7469" style="stroke:#181818;stroke-width:1;"/></g><!--reverse link Reptile to Turtle--><g class="link" data-entity-1="ent0007" data-entity-2="ent0032" data-link-type="association" data-source-line="71" id="lnk33"><path d="M1249.36,428.2369 C1249.36,428.2369 1231.67,496.5569 1221.44,536.0669" fill="none" id="Reptile-backto-Turtle" style="stroke:#181818;stroke-width:1;"/></g><!--reverse link Lizard to Dragon--><g class="link" data-entity-1="ent0013" data-entity-2="ent0034" data-link-type="extension" data-source-line="73" id="lnk35"><path d="M1354.36,610.7569 C1354.36,639.8869 1354.36,667.7369 1354.36,696.9269" fill="none" id="Lizard-backto-Dragon" style="stroke:#181818;stroke-width:1;"/><polygon fill="none" points="1354.36,592.7569,1348.36,610.7569,1360.36,610.7569,1354.36,592.7569" style="stroke:#181818;stroke-width:1;"/></g><g class="legend" data-source-line="75"><rect fill="#DDDDDD" height="95.4844" rx="7.5" ry="7.5" style="stroke:#000000;stroke-width:1;" width="663.2764" x="728.0492" y="771.5725"/><text fill="#000000" font-family="sans-serif" font-size="14" lengthAdjust="spacing" textLength="51.6729" x="733.0492" y="789.5676">Legend</text><text fill="#000000" font-family="sans-serif" font-size="14" lengthAdjust="spacing" textLength="4.4502" x="733.0492" y="807.8645">&#160;</text><text fill="#000000" font-family="sans-serif" font-size="14" font-weight="bold" lengthAdjust="spacing" textLength="58.2354" x="737.4994" y="807.8645">Symbol</text><text fill="#000000" font-family="sans-serif" font-size="14" lengthAdjust="spacing" textLength="4.4502" x="795.7347" y="807.8645">&#160;</text><text fill="#000000" font-family="sans-serif" font-size="14" lengthAdjust="spacing" textLength="4.4502" x="800.1849" y="807.8645">&#160;</text><text fill="#000000" font-family="sans-serif" font-size="14" font-weight="bold" lengthAdjust="spacing" textLength="67.6279" x="804.6351" y="807.8645">Meaning</text><text fill="#000000" font-family="sans-serif" font-size="14" lengthAdjust="spacing" textLength="4.4502" x="872.263" y="807.8645">&#160;</text><text fill="#000000" font-family="sans-serif" font-size="14" lengthAdjust="spacing" textLength="4.4502" x="907.058" y="807.8645">&#160;</text><text fill="#000000" font-family="sans-serif" font-size="14" lengthAdjust="spacing" textLength="4.4502" x="915.9584" y="807.8645">&#160;</text><text fill="#000000" font-family="sans-serif" font-size="14" font-weight="bold" lengthAdjust="spacing" textLength="58.2354" x="920.4086" y="807.8645">Symbol</text><text fill="#000000" font-family="sans-serif" font-size="14" lengthAdjust="spacing" textLength="4.4502" x="978.6439" y="807.8645">&#160;</text><text fill="#000000" font-family="sans-serif" font-size="14" lengthAdjust="spacing" textLength="4.4502" x="983.0941" y="807.8645">&#160;</text><text fill="#000000" font-family="sans-serif" font-size="14" font-weight="bold" lengthAdjust="spacing" textLength="67.6279" x="987.5443" y="807.8645">Meaning</text><text fill="#000000" font-family="sans-serif" font-size="14" lengthAdjust="spacing" textLength="4.4502" x="1055.1722" y="807.8645">&#160;</text><text fill="#000000" font-family="sans-serif" font-size="14" lengthAdjust="spacing" textLength="8.9004" x="1109.2787" y="807.8645">&#160;&#160;</text><text fill="#000000" font-family="sans-serif" font-size="14" lengthAdjust="spacing" textLength="4.4502" x="1118.1791" y="807.8645">&#160;</text><text fill="#000000" font-family="sans-serif" font-size="14" font-weight="bold" lengthAdjust="spacing" textLength="58.2354" x="1122.6293" y="807.8645">Symbol</text><text fill="#000000" font-family="sans-serif" font-size="14" lengthAdjust="spacing" textLength="4.4502" x="1180.8646" y="807.8645">&#160;</text><text fill="#000000" font-family="sans-serif" font-size="14" lengthAdjust="spacing" textLength="4.4502" x="1216.432" y="807.8645">&#160;</text><text fill="#000000" font-family="sans-serif" font-size="14" font-weight="bold" lengthAdjust="spacing" textLength="67.6279" x="1220.8822" y="807.8645">Meaning</text><text fill="#000000" font-family="sans-serif" font-size="14" lengthAdjust="spacing" textLength="4.4502" x="1288.5101" y="807.8645">&#160;</text><text fill="#000000" font-family="sans-serif" font-size="14" lengthAdjust="spacing" textLength="9.5771" x="737.4994" y="824.1614">A</text><text fill="#000000" font-family="sans-serif" font-size="14" lengthAdjust="spacing" textLength="97.9727" x="804.6351" y="824.1614">Abstract class</text><text fill="#000000" font-family="sans-serif" font-size="14" lengthAdjust="spacing" textLength="4.4502" x="907.058" y="824.1614">&#160;</text><text fill="#000000" font-family="sans-serif" font-size="14" lengthAdjust="spacing" textLength="21.5811" x="920.4086" y="824.1614">&#171; &#187;</text><text fill="#000000" font-family="sans-serif" font-size="14" lengthAdjust="spacing" textLength="112.4443" x="987.5443" y="824.1614">Name of the file</text><text fill="#000000" font-family="sans-serif" font-size="14" lengthAdjust="spacing" textLength="4.4502" x="1109.2787" y="824.1614">&#160;</text><text fill="#000000" font-family="sans-serif" font-size="14" lengthAdjust="spacing" textLength="67.2109" x="1122.6293" y="824.1614">Circle (&#9675;)</text><text fill="#000000" font-family="sans-serif" font-size="14" lengthAdjust="spacing" textLength="135.1191" x="1220.8822" y="824.1614">Public field/method</text><text fill="#000000" font-family="sans-serif" font-size="14" lengthAdjust="spacing" textLength="9.7754" x="737.4994" y="840.4582">C</text><text fill="#000000" font-family="sans-serif" font-size="14" lengthAdjust="spacing" textLength="36.832" x="804.6351" y="840.4582">Class</text><text fill="#000000" font-family="sans-serif" font-size="14" lengthAdjust="spacing" textLength="8.9004" x="907.058" y="840.4582">&#160;&#160;</text><text fill="#000000" font-family="sans-serif" font-size="14" lengthAdjust="spacing" textLength="4.4502" x="915.9584" y="840.4582">&#160;</text><text fill="#000000" font-family="sans-serif" font-size="14" font-style="italic" lengthAdjust="spacing" textLength="33.4346" x="920.4086" y="840.4582">italic</text><text fill="#000000" font-family="sans-serif" font-size="14" lengthAdjust="spacing" textLength="4.4502" x="953.8431" y="840.4582">&#160;</text><text fill="#000000" font-family="sans-serif" font-size="14" lengthAdjust="spacing" textLength="117.2842" x="987.5443" y="840.4582">Abstract method</text><text fill="#000000" font-family="sans-serif" font-size="14" lengthAdjust="spacing" textLength="4.4502" x="1109.2787" y="840.4582">&#160;</text><text fill="#000000" font-family="sans-serif" font-size="14" lengthAdjust="spacing" textLength="78.1963" x="1122.6293" y="840.4582">Square (&#9633;)</text><text fill="#000000" font-family="sans-serif" font-size="14" lengthAdjust="spacing" textLength="142.4951" x="1220.8822" y="840.4582">Private field/method</text><text fill="#000000" font-family="sans-serif" font-size="14" lengthAdjust="spacing" textLength="4.1289" x="737.4994" y="856.7551">I</text><text fill="#000000" font-family="sans-serif" font-size="14" lengthAdjust="spacing" textLength="62.6787" x="804.6351" y="856.7551">Interface</text><text fill="#000000" font-family="sans-serif" font-size="14" lengthAdjust="spacing" textLength="4.4502" x="907.058" y="856.7551">&#160;</text><text fill="#000000" font-family="sans-serif" font-size="14" lengthAdjust="spacing" textLength="4.4502" x="915.9584" y="856.7551">&#160;</text><text fill="#000000" font-family="sans-serif" font-size="14" lengthAdjust="spacing" textLength="4.4502" x="983.0941" y="856.7551">&#160;</text><text fill="#000000" font-family="sans-serif" font-size="14" lengthAdjust="spacing" textLength="4.4502" x="1109.2787" y="856.7551">&#160;</text><text fill="#000000" font-family="sans-serif" font-size="14" lengthAdjust="spacing" textLength="89.3525" x="1122.6293" y="856.7551">Diamond (&#9671;)</text><text fill="#000000" font-family="sans-serif" font-size="14" lengthAdjust="spacing" textLength="160.9932" x="1220.8822" y="856.7551">Protected field/method</text><line style="stroke:#000000;stroke-width:1;" x1="733.0492" x2="1386.3255" y1="794.8694" y2="794.8694"/><line style="stroke:#000000;stroke-width:1;" x1="733.0492" x2="1386.3255" y1="811.1663" y2="811.1663"/><line style="stroke:#000000;stroke-width:1;" x1="733.0492" x2="1386.3255" y1="827.4631" y2="827.4631"/><line style="stroke:#000000;stroke-width:1;" x1="733.0492" x2="1386.3255" y1="843.76" y2="843.76"/><line style="stroke:#000000;stroke-width:1;" x1="733.0492" x2="1386.3255" y1="860.0569" y2="860.0569"/><line style="stroke:#000000;stroke-width:1;" x1="733.0492" x2="733.0492" y1="794.8694" y2="860.0569"/><line style="stroke:#000000;stroke-width:1;" x1="800.1849" x2="800.1849" y1="794.8694" y2="860.0569"/><line style="stroke:#000000;stroke-width:1;" x1="907.058" x2="907.058" y1="794.8694" y2="860.0569"/><line style="stroke:#000000;stroke-width:1;" x1="915.9584" x2="915.9584" y1="794.8694" y2="860.0569"/><line style="stroke:#000000;stroke-width:1;" x1="983.0941" x2="983.0941" y1="794.8694" y2="860.0569"/><line style="stroke:#000000;stroke-width:1;" x1="1109.2787" x2="1109.2787" y1="794.8694" y2="860.0569"/><line style="stroke:#000000;stroke-width:1;" x1="1118.1791" x2="1118.1791" y1="794.8694" y2="860.0569"/><line style="stroke:#000000;stroke-width:1;" x1="1216.432" x2="1216.432" y1="794.8694" y2="860.0569"/><line style="stroke:#000000;stroke-width:1;" x1="1386.3255" x2="1386.3255" y1="794.8694" y2="860.0569"/></g><?plantuml-src fLLDRzim3BtxLmXO3qswBi2EGr4WIrSiGBiMIx4T2qLcR2AovCbo-f7stCFkstb_RRzar8UTr0cQ0OM3M1JVUn8fKgxcg4fkUC6Kjd05jtOeCLC5ACi4_O59gXQI6LsNOvM3GSkL0FO-IInQ2MoeiE2IVKOmt8ZyZdswvKL9ZlsB1PX3K1ag00DfBqdujBA62zANlAeQwj4HutxqhinBTdpCbWbZRmY9AcEA5-3CcTJSiWhl8I7puFfQQ4MGMjZzYDnpqBSi0FSSikUG6TWlvDZlVM01w2QhEBbE9S12Onev4-8xZfUB53-thjyobaraZ-oWu7EOw5gbQqi-RiH-YbNk8f_HkucRZW1KskR5fs6gjMGp9pTM4-1Rb3wYIPtIbDuxbGHNf_9kYyfNA2tIgP6G2SETMbXz0yeKDyZL5iLpNiJJBVpejNh3einnIZvVC8tnNn4R0AgRJSaplESXUTAFkc9DKfP4HTSHCqwbVmdMw_lIGZ5NMykhSRGb5YUQeY79i8aJdRaTf3hhBXypYAwTN5jMxTA7JNT4qPNQY8gJr0IthrFRoDG2Agl5l2ld-Q4dIeC2LkODO9RR92RgqZcx3HKcOqTv-lCc_Eubkgmu6sbXcOsiZlIDpuE-wUPX5SgoHLy8gykwSWmTXbsMxzSLOS9beNqbLdwq0puoOJlRUjJtxmfwLHlxOX-k5sMi8CEpi9dKZpOZzcNk298wJANC-ACvyqRomFhzoLqnrRBVPyuu1xgFLUQj5vqlUabtI7F3vuNa56cZjBi7vgvWfcVCva3t88Nad2Cqmdqz_lx-sIFpifvA5EG6cGuAiBbElVJ8GQCY_GO3-YuHS31ONxB1qpFvKNFZP7_zyR865zp2fkwOdEEsrH_QvmGv7NFgzlKK1EYZAIoaNGdAQ4XoyWy0?></g></svg>